<?xml version="1.0" encoding="utf-8"?>
<!-- Generator: Adobe Illustrator 23.0.1, SVG Export Plug-In . SVG Version: 6.00 Build 0)  -->
<svg version="1.1" id="Layer_1" xmlns="http://www.w3.org/2000/svg" xmlns:xlink="http://www.w3.org/1999/xlink" x="0px" y="0px"
	 viewBox="0 0 1000 1000" style="enable-background:new 0 0 1000 1000;" xml:space="preserve">
<style type="text/css">
	.st0{fill:url(#SVGID_1_);}
	.st1{opacity:0.5;enable-background:new    ;}
	.st2{fill:#010101;fill-opacity:0;}
	.st3{fill:#00547E;}
	.st4{opacity:0.5;fill:url(#SVGID_2_);enable-background:new    ;}
	.st5{opacity:5.000000e-02;fill:#010101;enable-background:new    ;}
	.st6{opacity:0.15;fill:#010101;enable-background:new    ;}
	.st7{fill:#FFFFFF;}
</style>
<g>
	
		<radialGradient id="SVGID_1_" cx="-491.5212" cy="366.2763" r="189.041" gradientTransform="matrix(0 12.6829 -13.417 0 5414.3296 5871.0503)" gradientUnits="userSpaceOnUse">
		<stop  offset="0" style="stop-color:#94D8E9"/>
		<stop  offset="0.262" style="stop-color:#47BAEA"/>
		<stop  offset="0.705" style="stop-color:#4A84C5"/>
		<stop  offset="1" style="stop-color:#2C63A1"/>
	</radialGradient>
	<path class="st0" d="M500,8.6C228.6,8.6,8.6,228.6,8.6,500S228.6,991.4,500,991.4S991.4,771.4,991.4,500S771.4,8.6,500,8.6z"/>
	<g class="st1">
		<path class="st2" d="M500,8.6C228.6,8.6,8.6,228.6,8.6,500S228.6,991.4,500,991.4S991.4,771.4,991.4,500S771.4,8.6,500,8.6z"/>
		<path class="st3" d="M500,999.2C225.5,999.2,0.8,774.5,0.8,500S225.5,0.8,500,0.8S999.2,225.5,999.2,500S774.5,999.2,500,999.2z
			 M500,16.4C233.3,16.4,16.4,233.3,16.4,500S233.3,983.6,500,983.6S983.6,766.7,983.6,500S766.7,16.4,500,16.4z"/>
	</g>
	
		<linearGradient id="SVGID_2_" gradientUnits="userSpaceOnUse" x1="-207.7116" y1="566.2889" x2="-207.7116" y2="798.0977" gradientTransform="matrix(4.1639 0 0 4.1639 1364.8901 -2338.1965)">
		<stop  offset="0" style="stop-color:#FFFFFF"/>
		<stop  offset="0.424" style="stop-color:#FFFFFF;stop-opacity:0.235"/>
		<stop  offset="0.821" style="stop-color:#FFFFFF;stop-opacity:0.157"/>
		<stop  offset="1" style="stop-color:#FFFFFF;stop-opacity:0.392"/>
	</linearGradient>
	<path class="st4" d="M500,989.8C230.1,989.8,10.2,769.9,10.2,500S230.1,10.2,500,10.2S989.8,230.1,989.8,500S769.9,989.8,500,989.8
		z M500,25.8C237.9,25.8,25.8,237.9,25.8,500S237.9,974.2,500,974.2S974.2,762.1,974.2,500S762.1,25.8,500,25.8z"/>
	<path class="st5" d="M500,141.2c-202.8,0-368.1,165.3-368.1,368.1S297.2,877.5,500,877.5s368.1-165.3,368.1-368.1
		S702.8,141.2,500,141.2z M500,189.6c145.1,0,266.7,96.7,305.7,229.3C773,486,726.2,545.2,670,595.2c-28.1,23.4-57.7,45.2-90.5,59.3
		c-32.8,14-68.6,23.4-103,20.3c-20.3-1.6-40.6-6.2-59.3-15.6c59.3-34.3,112.3-78,156-129.5c31.2-37.4,59.3-79.6,71.8-129.5
		c6.2-25,6.2-49.9,1.6-74.9s-17.2-48.4-34.3-68.6c-17.2-18.7-40.6-31.2-64-37.4s-49.9-7.8-73.3-3.1c-48.4,9.4-92,37.4-124.8,71.8
		c-60.8,60.8-96.7,145.1-90.5,230.9c3.1,42.1,17.2,84.2,42.1,120.1c3.1,3.1,6.2,7.8,9.4,10.9c-28.1,9.4-56.2,15.6-85.8,20.3
		c-28.1-48.4-45.2-103-45.2-162.2C180.2,333.1,323.7,189.6,500,189.6z M501.6,256.7c21.8,0,42.1,6.2,59.3,18.7
		c15.6,10.9,26.5,28.1,32.8,45.2c6.2,18.7,7.8,37.4,6.2,57.7c-4.7,39-25,74.9-48.4,107.6c-43.7,57.7-101.4,103-166.9,135.7
		c-4.7,1.6-9.4,4.7-14,6.2c-12.5-10.9-21.8-23.4-29.6-37.4c-18.7-32.8-25-71.8-21.8-110.8c3.1-37.4,17.2-74.9,34.3-110.8
		c20.3-40.6,48.4-78,87.4-98.3C459.4,262.9,481.3,256.7,501.6,256.7z M818.2,495.3c0,4.7,1.6,9.4,1.6,14
		c0,176.3-143.5,319.8-319.8,319.8c-93.6,0-176.3-40.6-235.5-104.5c31.2-7.8,60.8-17.2,88.9-29.6c14,10.9,29.6,20.3,46.8,26.5
		c54.6,20.3,115.4,17.2,168.5-1.6c54.6-18.7,101.4-51.5,141.9-90.5C754.3,588.9,790.1,543.7,818.2,495.3L818.2,495.3z"/>
	<path class="st6" d="M500,150.6c-198.1,0-358.8,160.7-358.8,358.8S301.9,868.1,500,868.1s358.8-160.7,358.8-358.8
		S698.1,150.6,500,150.6z M500,180.2c151.3,0,277.7,101.4,316.7,240.2c-34.3,70.2-81.1,131-138.8,182.5c-28.1,25-57.7,45.2-92,60.8
		c-34.3,15.6-70.2,23.4-107.6,21.8c-28.1-1.6-54.6-9.4-79.6-23.4c64-34.3,123.2-81.1,170-137.3c31.2-35.9,59.3-78,68.6-124.8
		c4.7-23.4,6.2-48.4,1.6-71.8c-4.7-23.4-15.6-45.2-32.8-64c-15.6-17.2-37.4-29.6-59.3-35.9c-23.4-6.2-46.8-6.2-70.2-3.1
		c-46.8,7.8-87.4,35.9-120.1,68.6c-57.7,59.3-93.6,141.9-87.4,224.6c3.1,40.6,17.2,81.1,40.6,115.4c4.7,7.8,10.9,14,17.2,21.8
		c-34.3,12.5-70.2,20.3-106.1,25c-32.8-51.5-49.9-112.3-48.4-173.1C170.9,328.4,317.5,180.2,500,180.2z M501.6,247.3
		c23.4,0,46.8,7.8,65.5,20.3c17.2,12.5,29.6,31.2,35.9,49.9c6.2,20.3,9.4,40.6,6.2,62.4c-4.7,42.1-25,79.6-51.5,112.3
		c-45.2,59.3-104.5,106.1-170,138.8c-6.2,3.1-14,6.2-20.3,9.4c-14-12.5-26.5-28.1-35.9-43.7c-20.3-34.3-26.5-76.4-21.8-115.4
		c3.1-39,17.2-78,35.9-113.9c21.8-40.6,49.9-79.6,90.5-103C456.3,253.5,479.7,247.3,501.6,247.3z M826,465.7
		c1.6,14,3.1,29.6,3.1,43.7c0,182.5-146.6,329.1-329.1,329.1c-101.4,0-193.4-46.8-254.3-120.1c37.4-7.8,73.3-20.3,109.2-35.9
		c15.6,10.9,32.8,21.8,49.9,28.1c51.5,20.3,110.8,17.2,162.2-1.6c53-18.7,98.3-49.9,138.8-88.9C754.3,576.4,794.8,523.4,826,465.7z"
		/>
	<path class="st7" d="M500,141.2c-198.1,0-358.8,160.7-358.8,358.8S301.9,858.8,500,858.8S858.8,698.1,858.8,500
		S698.1,141.2,500,141.2z M500,170.9c151.3,0,277.7,101.4,316.7,240.2c-34.3,70.2-81.1,131-138.8,182.5c-28.1,25-57.7,45.2-92,60.8
		c-34.3,15.6-70.2,23.4-107.6,21.8c-28.1-1.6-54.6-9.4-79.6-23.4c64-34.3,123.2-81.1,170-137.3c31.2-35.9,59.3-78,68.6-124.8
		c4.7-23.4,6.2-48.4,1.6-71.8c-4.7-23.4-15.6-45.2-32.8-64c-15.6-17.2-37.4-29.6-59.3-35.9c-23.4-6.2-46.8-6.2-70.2-3.1
		c-46.8,7.8-87.4,35.9-120.1,68.6c-57.7,59.3-93.6,141.9-87.4,224.6c3.1,40.6,17.2,81.1,40.6,115.4c4.7,7.8,10.9,14,17.2,21.8
		c-34.3,12.5-70.2,20.3-106.1,25c-32.8-51.5-49.9-112.3-48.4-173.1C170.9,317.5,317.5,170.9,500,170.9z M501.6,237.9
		c23.4,0,46.8,7.8,65.5,20.3c17.2,12.5,29.6,31.2,35.9,49.9c6.2,20.3,9.4,40.6,6.2,62.4c-4.7,42.1-25,79.6-51.5,112.3
		c-45.2,59.3-104.5,106.1-170,138.8c-6.2,3.1-14,6.2-20.3,9.4c-14-12.5-26.5-28.1-35.9-43.7c-20.3-34.3-26.5-76.4-21.8-115.4
		c3.1-39,17.2-78,35.9-113.9c21.8-40.6,49.9-79.6,90.5-103C456.3,244.2,479.7,237.9,501.6,237.9z M826,456.3
		c1.6,14,3.1,29.6,3.1,43.7c0,182.5-146.6,329.1-329.1,329.1c-101.4,0-193.4-46.8-254.3-120.1c37.4-7.8,73.3-20.3,109.2-35.9
		c15.6,10.9,32.8,21.8,49.9,28.1c51.5,20.3,110.8,17.2,162.2-1.6c53-18.7,98.3-49.9,138.8-88.9C754.3,567.1,794.8,514,826,456.3z"/>
</g>
</svg>
